<!--?xml version="1.0" standalone="no"?-->
              <svg id="sw-js-blob-svg" viewBox="0 0 100 100" xmlns="http://www.w3.org/2000/svg" version="1.1">
                    <defs> 
                        <linearGradient id="sw-gradient" x1="0" x2="1" y1="1" y2="0">
                            <stop id="stop1" stop-color="rgba(76, 225, 158, 1)" offset="0%"></stop>
                            <stop id="stop2" stop-color="rgba(76, 225, 158, 1)" offset="100%"></stop>
                        </linearGradient>
                    </defs>
                <path fill="none" d="M9.3,-13.9C14.5,-6.6,23.1,-6.1,22.7,-4.6C22.3,-3,12.9,-0.5,8.9,3.9C4.9,8.3,6.2,14.5,5.2,15.5C4.1,16.4,0.6,12.1,-0.7,8.7C-2,5.3,-1.2,2.7,-6.2,0.5C-11.1,-1.8,-21.9,-3.8,-25.8,-8.5C-29.7,-13.3,-26.7,-20.7,-21.2,-28C-15.8,-35.2,-7.9,-42.2,-3,-38.7C2,-35.1,4,-21.1,9.3,-13.9Z" width="100%" height="100%" transform="translate(50 50)" style="transition: all 0.3s ease 0s;" stroke-width="1" stroke="url(#sw-gradient)"></path>
              </svg>