<svg xmlns="http://www.w3.org/2000/svg" version="1.1" xmlns:xlink="http://www.w3.org/1999/xlink" xmlns:svgjs="http://svgjs.dev/svgjs" viewBox="0 0 800 800"><defs><linearGradient x1="50%" y1="0%" x2="50%" y2="100%" id="ffflurry-grad" gradientTransform="rotate(270)"><stop stop-color="hsl(0, 0%, 8%)" stop-opacity="1" offset="0%"></stop><stop stop-color="hsl(162, 100%, 58%)" stop-opacity="1" offset="45%"></stop><stop stop-color="hsl(270, 73%, 53%)" stop-opacity="1" offset="100%"></stop></linearGradient></defs><rect width="100%" height="100%" fill="hsl(0, 0%, 8%)"></rect><g fill="url(#ffflurry-grad)"><rect width="57" height="3" x="329.5" y="553.5" rx="1.5" transform="rotate(47, 358, 555)" opacity="0.89"></rect><rect width="502" height="3" x="119" y="105.5" rx="1.5" transform="rotate(47, 370, 107)" opacity="0.72"></rect><rect width="51" height="3" x="-6.5" y="295.5" rx="1.5" transform="rotate(47, 19, 297)" opacity="0.87"></rect><rect width="438" height="3" x="-143" y="221.5" rx="1.5" transform="rotate(47, 76, 223)" opacity="0.53"></rect><rect width="208" height="3" x="165" y="424.5" rx="1.5" transform="rotate(47, 269, 426)" opacity="0.11"></rect><rect width="331" height="3" x="-142.5" y="634.5" rx="1.5" transform="rotate(47, 23, 636)" opacity="0.54"></rect><rect width="149" height="3" x="638.5" y="632.5" rx="1.5" transform="rotate(47, 713, 634)" opacity="0.26"></rect><rect width="386" height="3" x="316" y="235.5" rx="1.5" transform="rotate(47, 509, 237)" opacity="0.69"></rect><rect width="360" height="3" x="-13" y="636.5" rx="1.5" transform="rotate(47, 167, 638)" opacity="0.99"></rect><rect width="577" height="3" x="456.5" y="418.5" rx="1.5" transform="rotate(47, 745, 420)" opacity="0.65"></rect><rect width="55" height="3" x="240.5" y="122.5" rx="1.5" transform="rotate(47, 268, 124)" opacity="0.74"></rect><rect width="426" height="3" x="-190" y="54.5" rx="1.5" transform="rotate(47, 23, 56)" opacity="0.23"></rect><rect width="320" height="3" x="605" y="48.5" rx="1.5" transform="rotate(47, 765, 50)" opacity="0.76"></rect><rect width="922" height="3" x="-195" y="659.5" rx="1.5" transform="rotate(47, 266, 661)" opacity="0.32"></rect><rect width="620" height="3" x="-182" y="329.5" rx="1.5" transform="rotate(47, 128, 331)" opacity="0.72"></rect><rect width="243" height="3" x="396.5" y="82.5" rx="1.5" transform="rotate(47, 518, 84)" opacity="0.12"></rect><rect width="357" height="3" x="470.5" y="650.5" rx="1.5" transform="rotate(47, 649, 652)" opacity="0.07"></rect><rect width="68" height="3" x="121" y="96.5" rx="1.5" transform="rotate(47, 155, 98)" opacity="0.93"></rect><rect width="344" height="3" x="398" y="398.5" rx="1.5" transform="rotate(47, 570, 400)" opacity="0.39"></rect><rect width="319" height="3" x="373.5" y="472.5" rx="1.5" transform="rotate(47, 533, 474)" opacity="0.62"></rect><rect width="468" height="3" x="-8" y="464.5" rx="1.5" transform="rotate(47, 226, 466)" opacity="0.17"></rect><rect width="461" height="3" x="-144.5" y="678.5" rx="1.5" transform="rotate(47, 86, 680)" opacity="0.10"></rect><rect width="722" height="3" x="-214" y="410.5" rx="1.5" transform="rotate(47, 147, 412)" opacity="0.41"></rect><rect width="75" height="3" x="69.5" y="524.5" rx="1.5" transform="rotate(47, 107, 526)" opacity="0.38"></rect><rect width="339" height="3" x="270.5" y="33.5" rx="1.5" transform="rotate(47, 440, 35)" opacity="0.18"></rect><rect width="622" height="3" x="347" y="167.5" rx="1.5" transform="rotate(47, 658, 169)" opacity="0.38"></rect><rect width="271" height="3" x="-52.5" y="51.5" rx="1.5" transform="rotate(47, 83, 53)" opacity="0.39"></rect><rect width="277" height="3" x="89.5" y="582.5" rx="1.5" transform="rotate(47, 228, 584)" opacity="0.79"></rect><rect width="718" height="3" x="120" y="356.5" rx="1.5" transform="rotate(47, 479, 358)" opacity="0.79"></rect><rect width="126" height="3" x="618" y="35.5" rx="1.5" transform="rotate(47, 681, 37)" opacity="0.24"></rect><rect width="228" height="3" x="127" y="527.5" rx="1.5" transform="rotate(47, 241, 529)" opacity="0.65"></rect><rect width="209" height="3" x="-60.5" y="443.5" rx="1.5" transform="rotate(47, 44, 445)" opacity="0.21"></rect><rect width="150" height="3" x="553" y="256.5" rx="1.5" transform="rotate(47, 628, 258)" opacity="0.94"></rect><rect width="119" height="3" x="331.5" y="740.5" rx="1.5" transform="rotate(47, 391, 742)" opacity="0.28"></rect><rect width="127" height="3" x="708.5" y="616.5" rx="1.5" transform="rotate(47, 772, 618)" opacity="0.75"></rect><rect width="399" height="3" x="292.5" y="675.5" rx="1.5" transform="rotate(47, 492, 677)" opacity="0.93"></rect><rect width="108" height="3" x="146" y="753.5" rx="1.5" transform="rotate(47, 200, 755)" opacity="0.75"></rect><rect width="84" height="3" x="511" y="38.5" rx="1.5" transform="rotate(47, 553, 40)" opacity="0.71"></rect><rect width="737" height="3" x="289.5" y="448.5" rx="1.5" transform="rotate(47, 658, 450)" opacity="0.88"></rect><rect width="421" height="3" x="220.5" y="286.5" rx="1.5" transform="rotate(47, 431, 288)" opacity="0.42"></rect><rect width="547" height="3" x="155.5" y="459.5" rx="1.5" transform="rotate(47, 429, 461)" opacity="0.47"></rect><rect width="485" height="3" x="37.5" y="211.5" rx="1.5" transform="rotate(47, 280, 213)" opacity="0.24"></rect><rect width="666" height="3" x="43" y="639.5" rx="1.5" transform="rotate(47, 376, 641)" opacity="0.67"></rect><rect width="419" height="3" x="-75.5" y="587.5" rx="1.5" transform="rotate(47, 134, 589)" opacity="0.34"></rect><rect width="327" height="3" x="-94.5" y="600.5" rx="1.5" transform="rotate(47, 69, 602)" opacity="0.88"></rect><rect width="474" height="3" x="352" y="325.5" rx="1.5" transform="rotate(47, 589, 327)" opacity="0.70"></rect><rect width="243" height="3" x="612.5" y="122.5" rx="1.5" transform="rotate(47, 734, 124)" opacity="0.89"></rect><rect width="786" height="3" x="-209" y="177.5" rx="1.5" transform="rotate(47, 184, 179)" opacity="0.62"></rect><rect width="330" height="3" x="597" y="517.5" rx="1.5" transform="rotate(47, 762, 519)" opacity="0.76"></rect><rect width="636" height="3" x="428" y="225.5" rx="1.5" transform="rotate(47, 746, 227)" opacity="0.75"></rect><rect width="427" height="3" x="-94.5" y="764.5" rx="1.5" transform="rotate(47, 119, 766)" opacity="0.39"></rect><rect width="480" height="3" x="324" y="163.5" rx="1.5" transform="rotate(47, 564, 165)" opacity="0.61"></rect><rect width="347" height="3" x="-136.5" y="773.5" rx="1.5" transform="rotate(47, 37, 775)" opacity="0.64"></rect><rect width="116" height="3" x="408" y="136.5" rx="1.5" transform="rotate(47, 466, 138)" opacity="0.69"></rect><rect width="50" height="3" x="32" y="370.5" rx="1.5" transform="rotate(47, 57, 372)" opacity="0.20"></rect><rect width="375" height="3" x="-39.5" y="248.5" rx="1.5" transform="rotate(47, 148, 250)" opacity="0.57"></rect><rect width="430" height="3" x="-57" y="696.5" rx="1.5" transform="rotate(47, 158, 698)" opacity="0.96"></rect><rect width="373" height="3" x="432.5" y="91.5" rx="1.5" transform="rotate(47, 619, 93)" opacity="0.12"></rect><rect width="756" height="3" x="187" y="624.5" rx="1.5" transform="rotate(47, 565, 626)" opacity="0.37"></rect><rect width="696" height="3" x="-87" y="300.5" rx="1.5" transform="rotate(47, 261, 302)" opacity="0.57"></rect><rect width="638" height="3" x="433" y="699.5" rx="1.5" transform="rotate(47, 752, 701)" opacity="0.18"></rect><rect width="437" height="3" x="258.5" y="567.5" rx="1.5" transform="rotate(47, 477, 569)" opacity="0.39"></rect><rect width="280" height="3" x="-105" y="527.5" rx="1.5" transform="rotate(47, 35, 529)" opacity="0.72"></rect><rect width="57" height="3" x="368.5" y="199.5" rx="1.5" transform="rotate(47, 397, 201)" opacity="0.19"></rect><rect width="474" height="3" x="88" y="477.5" rx="1.5" transform="rotate(47, 325, 479)" opacity="0.18"></rect><rect width="469" height="3" x="-170.5" y="279.5" rx="1.5" transform="rotate(47, 64, 281)" opacity="0.90"></rect><rect width="337" height="3" x="435.5" y="19.5" rx="1.5" transform="rotate(47, 604, 21)" opacity="0.45"></rect><rect width="192" height="3" x="99" y="298.5" rx="1.5" transform="rotate(47, 195, 300)" opacity="0.43"></rect><rect width="105" height="3" x="549.5" y="542.5" rx="1.5" transform="rotate(47, 602, 544)" opacity="0.23"></rect><rect width="500" height="3" x="-62" y="30.5" rx="1.5" transform="rotate(47, 188, 32)" opacity="0.47"></rect><rect width="295" height="3" x="354.5" y="762.5" rx="1.5" transform="rotate(47, 502, 764)" opacity="0.81"></rect><rect width="72" height="3" x="4" y="719.5" rx="1.5" transform="rotate(47, 40, 721)" opacity="0.61"></rect><rect width="533" height="3" x="-107.5" y="489.5" rx="1.5" transform="rotate(47, 159, 491)" opacity="0.42"></rect><rect width="593" height="3" x="294.5" y="730.5" rx="1.5" transform="rotate(47, 591, 732)" opacity="0.32"></rect><rect width="705" height="3" x="-64.5" y="753.5" rx="1.5" transform="rotate(47, 288, 755)" opacity="0.58"></rect><rect width="747" height="3" x="-317.5" y="155.5" rx="1.5" transform="rotate(47, 56, 157)" opacity="0.60"></rect><rect width="341" height="3" x="83.5" y="369.5" rx="1.5" transform="rotate(47, 254, 371)" opacity="0.99"></rect><rect width="187" height="3" x="274.5" y="376.5" rx="1.5" transform="rotate(47, 368, 378)" opacity="0.50"></rect><rect width="484" height="3" x="423" y="753.5" rx="1.5" transform="rotate(47, 665, 755)" opacity="0.08"></rect><rect width="613" height="3" x="445.5" y="766.5" rx="1.5" transform="rotate(47, 752, 768)" opacity="0.72"></rect><rect width="846" height="3" x="309" y="329.5" rx="1.5" transform="rotate(47, 732, 331)" opacity="0.26"></rect><rect width="72" height="3" x="266" y="36.5" rx="1.5" transform="rotate(47, 302, 38)" opacity="0.19"></rect><rect width="287" height="3" x="197.5" y="282.5" rx="1.5" transform="rotate(47, 341, 284)" opacity="0.38"></rect><rect width="612" height="3" x="384" y="553.5" rx="1.5" transform="rotate(47, 690, 555)" opacity="0.56"></rect></g></svg>