<svg xmlns="http://www.w3.org/2000/svg" version="1.1" xmlns:xlink="http://www.w3.org/1999/xlink" xmlns:svgjs="http://svgjs.dev/svgjs" viewBox="0 0 800 800"><defs><linearGradient x1="50%" y1="0%" x2="50%" y2="100%" id="ffflurry-grad" gradientTransform="rotate(270)"><stop stop-color="hsl(0, 0%, 8%)" stop-opacity="1" offset="0%"></stop><stop stop-color="hsl(162, 100%, 58%)" stop-opacity="1" offset="45%"></stop><stop stop-color="hsl(270, 73%, 53%)" stop-opacity="1" offset="100%"></stop></linearGradient></defs><rect width="100%" height="100%" fill="hsl(0, 0%, 8%)"></rect><g fill="url(#ffflurry-grad)"><rect width="556" height="3" x="66" y="536.5" rx="1.5" transform="rotate(45, 344, 538)" opacity="0.56"></rect><rect width="719" height="3" x="-177.5" y="64.5" rx="1.5" transform="rotate(45, 182, 66)" opacity="0.52"></rect><rect width="526" height="3" x="488" y="291.5" rx="1.5" transform="rotate(45, 751, 293)" opacity="0.17"></rect><rect width="229" height="3" x="199.5" y="53.5" rx="1.5" transform="rotate(45, 314, 55)" opacity="0.63"></rect><rect width="246" height="3" x="379" y="406.5" rx="1.5" transform="rotate(45, 502, 408)" opacity="0.08"></rect><rect width="576" height="3" x="-66" y="489.5" rx="1.5" transform="rotate(45, 222, 491)" opacity="0.55"></rect><rect width="678" height="3" x="366" y="437.5" rx="1.5" transform="rotate(45, 705, 439)" opacity="0.46"></rect><rect width="432" height="3" x="423" y="297.5" rx="1.5" transform="rotate(45, 639, 299)" opacity="0.76"></rect><rect width="578" height="3" x="383" y="537.5" rx="1.5" transform="rotate(45, 672, 539)" opacity="0.87"></rect><rect width="789" height="3" x="140.5" y="742.5" rx="1.5" transform="rotate(45, 535, 744)" opacity="0.14"></rect><rect width="749" height="3" x="20.5" y="244.5" rx="1.5" transform="rotate(45, 395, 246)" opacity="0.73"></rect><rect width="116" height="3" x="4" y="142.5" rx="1.5" transform="rotate(45, 62, 144)" opacity="0.30"></rect><rect width="302" height="3" x="320" y="573.5" rx="1.5" transform="rotate(45, 471, 575)" opacity="0.79"></rect><rect width="754" height="3" x="-157" y="695.5" rx="1.5" transform="rotate(45, 220, 697)" opacity="0.65"></rect><rect width="692" height="3" x="-271" y="688.5" rx="1.5" transform="rotate(45, 75, 690)" opacity="0.80"></rect><rect width="337" height="3" x="74.5" y="202.5" rx="1.5" transform="rotate(45, 243, 204)" opacity="0.25"></rect><rect width="238" height="3" x="464" y="622.5" rx="1.5" transform="rotate(45, 583, 624)" opacity="1.00"></rect><rect width="563" height="3" x="432.5" y="98.5" rx="1.5" transform="rotate(45, 714, 100)" opacity="0.52"></rect><rect width="521" height="3" x="106.5" y="707.5" rx="1.5" transform="rotate(45, 367, 709)" opacity="0.08"></rect><rect width="864" height="3" x="-19" y="97.5" rx="1.5" transform="rotate(45, 413, 99)" opacity="0.48"></rect><rect width="348" height="3" x="372" y="231.5" rx="1.5" transform="rotate(45, 546, 233)" opacity="0.76"></rect><rect width="247" height="3" x="425.5" y="75.5" rx="1.5" transform="rotate(45, 549, 77)" opacity="0.75"></rect><rect width="659" height="3" x="9.5" y="373.5" rx="1.5" transform="rotate(45, 339, 375)" opacity="0.96"></rect><rect width="831" height="3" x="-270.5" y="320.5" rx="1.5" transform="rotate(45, 145, 322)" opacity="0.37"></rect><rect width="880" height="3" x="-368" y="471.5" rx="1.5" transform="rotate(45, 72, 473)" opacity="0.96"></rect><rect width="168" height="3" x="641" y="697.5" rx="1.5" transform="rotate(45, 725, 699)" opacity="0.89"></rect></g></svg>